<svg version="1" xmlns="http://www.w3.org/2000/svg" width="666.667" height="666.667" viewBox="0 0 500.000000 500.000000"><path d="M217.8 28.4c-5.1 1.8-8.1 3.9-12.6 8.6-3 3.2-4.4 4-7.3 4-5.3 0-13.1 2.6-17.8 6-4.8 3.5-9.8 10.8-10.7 15.7-.5 2.7-1.7 4.1-6 6.8-9.6 6.2-14.9 18.1-12.7 28.8 1 4.9.9 5.3-2.8 12.2-5.3 9.7-7.2 15.8-10.7 33.2-3.4 16.5-5.5 40.6-5.6 62.1l-.1 14.2-4.5 1.5c-24.1 8.2-30.9 41.2-12.1 58.8 5.6 5.3 11.3 8.4 16.9 9.3 4 .6 4.1.7 6.2 7.8 11.2 36.9 43.2 66.6 79.5 73.5 11.8 2.3 10.5.7 10.5 13v10.9l-21.7.4c-21.4.4-22 .5-29.8 3.5-18.6 7-31.1 18.6-39.5 36.6-4.1 8.8-7 20.6-7 28.6 0 4.9.1 5.1 4 7.1l4 2v-7h32V486.7l7.3 2.1c25.8 7.6 45.9 10.5 72.7 10.5 26.2 0 42.1-2.1 69.3-9.4l7.7-2.1V466h34v3.5c0 1.9.2 3.5.5 3.5s2.4-.9 4.7-2.1l4.1-2.1-.7-7.7c-2.5-30.5-21.2-54.5-49.6-63.6-4.2-1.4-10.4-2-26.5-2.4l-21-.6-.3-10.7c-.3-11.9-.8-11 7.8-12.3 11.5-1.8 28.2-8.6 40-16.4 8.1-5.3 22.1-19.1 28-27.7 6-8.7 12.1-21.3 14.6-30l1.7-6.2 4.7-.6c9.8-1.3 20.9-9.6 25.8-19.3 4.7-9.2 4.7-22.4 0-31.6-4.3-8.5-13.7-16.3-22.3-18.6l-4-1 .3-10.8c.4-11.4-1.2-39.7-2.9-52.3-2.1-15.1-6.7-32.8-10.8-41.6-3.4-7.2-4.1-9.7-4.1-14.8 0-4.3-.7-7.6-2.4-11.1-2.6-5.6-10-12.8-14.9-14.4-2.8-1-3.4-1.9-4.9-6.9-2.1-7-7.7-13.8-14-17-5.1-2.5-14.3-4.5-16.9-3.7-1.3.4-2.2-.6-3.9-3.9-2.8-5.9-10.7-13-16.7-15-7.7-2.6-16.9-2.1-23.9 1.4l-5.9 2.9-5.9-2.9c-4.9-2.5-7-3-13-3-3.9.1-8.8.7-10.8 1.4zm18.6 8c1.9.8 5.2 3 7.3 5l4 3.5 2.9-3.1c12.4-13.1 35.3-6 38 11.9.5 3.6 1 4.3 2.3 3.7 3.2-1.4 12.9-1.6 16.6-.4 8 2.7 14.4 11.3 14.5 19.7 0 4 .1 4.1 3.9 4.8 19.4 3.3 23.3 28.7 5.9 37.6-5 2.6-12.7 2.5-17.9-.2-2.3-1.1-4.2-1.9-4.3-1.7-6.4 10.5-10.7 13.7-19.4 14.5-7.5.7-11.8-.7-17.5-5.7l-4.5-4-1.7 2.8c-5.4 8.5-11.6 12.2-20.5 12.2-9.1 0-16-4.3-20.2-12.5-1.1-2.2-2.2-4.2-2.4-4.4-.2-.2-2.5 1.9-5.1 4.6-11.9 12.1-30.1 8.9-36.9-6.4-2-4.5-2.8-5.3-5.1-5.3-7.5 0-15.5-7.3-17.4-16-2-8.7 4.1-19.6 12.6-22.4 3.7-1.3 4-1.7 5.2-7.3 2.6-11.6 10.7-17.7 23.1-17.6l7.2.1 1.7-3.5c1.8-4 6.8-8.3 11.5-10 4.6-1.6 12.2-1.6 16.2.1zm-75.6 78.7c1.9 1.7 4.8 3.6 6.4 4.1 3 1.1 3.8 2.8 1.3 2.8-.8 0-3.7 2.1-6.4 4.7-5.5 5.4-7.1 9.5-7.1 18.9 0 3.3-.9 9.4-1.9 13.5-2.2 8.5-12.1 35.2-12.8 34.5-1.6-1.6 4.2-47.6 7.7-61 1.9-7.5 7.3-20.6 8.6-20.6.3 0 2.2 1.4 4.2 3.1zm190.1 12.2c4 12.5 9.2 46.5 9.1 59.6-.1 3.4-.3 3.1-3.6-4.4-8.7-19.5-9.5-21.9-10.5-31.5-1.3-12.3-2.3-15.4-6.9-20l-3.8-3.8 3.8-2.6c2.1-1.4 4.7-3.6 5.7-5 1-1.3 2.1-2.2 2.5-2 .4.3 2.1 4.6 3.7 9.7zm-170.3 4.6c10.8 9.5 24.4 11.2 36.2 4.6l4.5-2.5 4 3.6c6.2 5.7 12 7.9 20.7 7.9 8.5 0 15.4-2.5 20.6-7.6l3-3 5.9 2.7c8.6 4 17.2 3.8 25.9-.5 3.6-1.7 7.6-4.5 9-6.1 2.4-2.9 2.7-3 6.8-2.1 13.5 3.1 19.8 9 19.8 18.8 0 8.6 2.7 17.5 9.7 33.3 10.2 22.8 12.5 29.1 12.1 34.2-.2 2.7-.8 4.3-1.5 4.2-.7-.1-5.1-.2-9.7-.3l-8.3-.1-.5-6.8c-.8-10.5-5-15.2-13.8-15.2-3.1 0-5.8-1-10-3.6-8.1-5-12.4-6.3-20.6-6.4-8.3 0-10.5 1.4-8.6 5.5 1.1 2.3 1.7 2.5 8.2 2.5 4 0 7 .4 7 1s-6.3 1-17 1c-18.9 0-21.8.7-24.5 6-1.5 2.9-1.7 3-9 3H243l-4.3-4.5-4.4-4.5h-18.1c-10 0-18.2-.4-18.2-.9 0-1.1 5-2.1 10.5-2.1 5.8 0 7.5-.8 7.5-3.5 0-3.8-2.3-4.8-10.2-4.3-7.9.4-16.4 3.6-22 8.3-2.4 2-4 2.5-8.7 2.5-9.7 0-14.1 5.1-14.1 16.5v6.5h-4.2c-2.4 0-6.7-.3-9.5-.6l-5.3-.7v-3.6c0-2.3 2.6-10 6.9-20.2 9.9-23.7 13.1-34.4 14.1-46.9.4-5.8 1.1-11.3 1.6-12.4.7-1.8 8.9-7.6 10.7-7.6.5 0 2.9 1.8 5.3 3.9zm-1.6 74.3c1.6 1 2.4 1 4 0 1.4-.9 8.5-1.2 25.5-1.2 22.1 0 23.5.1 24.5 1.9.6 1.2 1 9.5 1 20.2 0 15.6-.2 18.5-1.7 20.1-1.5 1.7-3.8 1.8-30.2 1.8-24.3 0-29-.2-30.9-1.6-2.1-1.5-2.2-2-2.2-20 0-10.9.4-19.3 1-20.5 1.2-2.2 5.9-2.6 9-.7zm139 .3c.7.8 2.1 1.5 3.2 1.5 1 0 2.1-.7 2.4-1.5.9-2.3 4.2-1.8 5.9.9 1.4 2.1 1.6 5.3 1.3 20.6-.3 16.6-.5 18.3-2.2 19.6-1.6 1.1-7.5 1.4-30.7 1.4-24.8 0-29-.2-30.3-1.6-1.3-1.3-1.6-4.6-1.6-20.8 0-13.6.3-19.5 1.2-20.4.9-.9 7.9-1.2 25.4-1.2 20.2 0 24.4.2 25.4 1.5zm-60 24.9c0 26.4-1.3 25.6 40.7 25.6 27.8 0 30-.1 33-2 5.6-3.3 6.7-6.2 7.1-17.7l.4-10.3h4.7c2.5 0 7 .3 9.9.7l5.4.6-.4 28.6-.4 28.6-3.1 9.1c-13.3 38.7-39.3 62.7-77.2 71.2-11.1 2.5-47.2 2.4-59.1-.1-21.2-4.6-38-14.4-52.1-30.3-6.5-7.4-19.5-27.1-21.3-32.2-2.8-7.8-3.6-18.6-3.6-47.3v-29.2l3.1.7c1.7.3 6 .6 9.5.6h6.4v9.3c0 10.8 1.7 15 7.1 17.9 3 1.6 6.2 1.8 33.2 1.8 33.1 0 35.1-.3 38.7-6.2 1.8-3 2-5 2-20.1V214h16v17.4zm-124.2 24l.2 26.7-2.2-.6c-18.9-5.7-26-29.4-13.2-44.4 3.5-4 11.9-9.3 13.9-8.7.6.2 1.1 10.3 1.3 27zm240.7-24.8c17.8 8.2 21.2 33.1 6.3 45.9-3.5 2.9-13.5 7.5-14.1 6.4-.1-.2-.1-12.7.1-27.7l.4-27.3 2.1.7c1.2.3 3.6 1.3 5.2 2zM264 395.7c0 21-.2 23.1-2 26.1-5.9 9.7-18.8 9.3-24.1-.8-1.7-3.1-1.9-6-1.9-25.1 0-11.8.3-21.9.7-22.2.3-.4 6.6-.7 14-.7H264v22.7z"/><path d="M256.1 44.7c-6.9 3.4-12.1 14.7-10.6 23.3 1.4 8.4 9.7 14.4 20.2 14.4 4.7.1 6.8-.4 9-2 6.6-4.9 8.7-14.3 4.5-20.2-2.8-3.8-9.6-6.5-13.6-5.4-6 1.7-9.6 11.5-6.2 16.7 3.1 4.7 9.7 2.1 6.8-2.6-1.6-2.5-1.5-5.4.3-6.9 3.3-2.8 9.3 2.7 8.1 7.5-1.6 6.5-8.3 8.3-16.1 4.5-6.6-3.2-8.3-9.5-4.5-17 2.8-5.6 5.4-7 12.6-7 7 0 8.8-1.6 5.4-5-2.5-2.5-11-2.7-15.9-.3zM199.3 74.6c-3.3 1.7-6.3 6.6-6.3 10.6 0 3.8 4.2 11.2 7.3 12.6 4 1.9 8.2-.2 8.2-4.3 0-2.8-.3-3-3.5-3-2.8 0-3.6-.5-4.4-2.7-.7-1.9-.6-3.5.2-5.3 1.6-3.5 7.8-3.6 11.1-.1 7 7.4.4 18.6-11 18.6-2.6 0-5.9-.4-7.2-.9-3.3-1.3-6.2.7-5.3 3.6.9 2.7 5.4 4.3 12.1 4.3 6 0 14.8-4 17.8-8.1 4.1-5.7 4.1-15.2-.1-20.8-4-5.6-12.5-7.6-18.9-4.5zM289.7 89.4c-8.3 2.3-12.7 8-12.7 16.8 0 6.2 2.5 11 6.9 13.3 3.4 1.7 11.3 2 14.2.5 5.7-3.1 6.7-16.2 1.4-20.7-3-2.6-6.6-2.5-9.4.2-2.2 2.2-.5 5.5 3 5.5 2.7 0 2.9.3 2.9 3.9 0 4.7-1.9 6.5-5.9 5.6-4.2-.9-6.6-4-6.6-8.5 0-4.4 2.4-7.6 7.2-9.6 4.5-1.9 8-1.7 13 .7 4.8 2.3 7.3 2 7.3-1 0-2.8-4.3-5.8-10.1-7-5.9-1.3-5.1-1.3-11.2.3zM204.6 216.2c-7.9 2.1-15.6 14.2-12.6 19.8 1.9 3.5 7 1.9 7-2.2 0-5.5 5.9-10.8 11.9-10.8 4.4 0 9.3 4.7 10.6 10.2 1 3.9 1.4 4.3 4 4.3s3-.4 3.3-3c.9-7.5-5.5-16.2-13.5-18.4-4.4-1.3-5.5-1.2-10.7.1zM286.6 216.4c-4.5 1.7-10 6.7-11.6 10.6-.6 1.5-1 4.5-.8 6.6.3 3.6.5 3.9 3.3 3.9 2.6 0 3-.4 3.8-4 1.8-8.8 9.3-12.8 16.7-9 3.1 1.6 6 6.1 6 9.3 0 4 5.1 5.8 6.9 2.4 1.3-2.4 0-8.1-2.9-12.7-4-6.4-14-9.8-21.4-7.1zM240.3 276.5c-1.1 3 .3 5 4.5 6.4 8.1 2.5 18.4-1.2 15.5-5.7-.8-1.4-2.8-1.7-10.2-1.9-6.9-.1-9.4.2-9.8 1.2zM226 314.4c-2.6 3.2-.8 5.9 6.4 9.6 6.6 3.4 7.3 3.5 17.6 3.5s11-.1 17.6-3.5c5.5-2.8 7-4 7.2-6.1.2-1.4-.4-3.1-1.3-3.9-1.3-1.1-2.6-.7-8.2 2.1-6.1 3.1-7.5 3.4-15.3 3.4-7.8 0-9.3-.3-15-3.3-7.2-3.7-7.3-3.7-9-1.8zM242.2 342.2c-3.6 3.6.2 6.8 8.2 6.8 7 0 9-1.3 8.4-5.2-.3-2.1-.8-2.3-7.8-2.6-5-.2-7.9.1-8.8 1z"/></svg>